<?xml version="1.0" encoding="utf-8"?>
<!-- Generator: Adobe Illustrator 24.0.0, SVG Export Plug-In . SVG Version: 6.00 Build 0)  -->
<svg version="1.1" id="_x3C_Layer_x3E_" xmlns="http://www.w3.org/2000/svg" xmlns:xlink="http://www.w3.org/1999/xlink" x="0px"
	 y="0px" width="1100.2px" height="1324.8px" viewBox="0 0 1100.2 1324.8" style="enable-background:new 0 0 1100.2 1324.8;"
	 xml:space="preserve">
<style type="text/css">
	.st0{fill:#C97E67;}
	.st1{fill:#33353B;}
	.st2{fill:#F19C79;}
	.st3{fill:#060633;}
	.st4{fill:#FFFFFF;}
	.st5{opacity:0.5;}
	.st6{fill:#B2604D;}
	.st7{fill:#44474F;}
	.st8{fill:#A44A3F;}
	.st9{fill:#CBDFBD;}
	.st10{fill:#9E4E41;}
	.st11{fill:#D4E09B;}
	.st12{fill:#E08B65;}
</style>
<g>
	<g>
		<path class="st0" d="M453.6,461.6c115.2-16.5,196.9-78.3,240.7-140.4c48.7-69.1,22.3-159.5-62.5-38.3
			c-52.3,74.8-107.2,106.5-178.3,153.2V461.6z"/>
	</g>
</g>
<g>
	<path class="st1" d="M970.2,568.6c1.2,13.1-68.2,27.5-155.1,35.7c-86.9,8.3-156.6,7.6-157.9-5.5c-1.2-13.1,66.5-33.6,153.5-41.9
		C897.7,548.6,969,555.5,970.2,568.6z"/>
</g>
<g>
	<path class="st2" d="M864.8,227.1c0,0-39.6-64.7-124.2-40.8c-84.6,23.9-123.1,156.7-83.3,412.6c0,0,132.7-65.9,312.9-30.8
		C970.3,568,925,320.7,864.8,227.1z"/>
</g>
<g>
	<path class="st2" d="M934.2,225.2l-61.9,38.2c0,0-151.8,53.9-194.8,56c-43,2.2-56.4-28-56.4-28s26.8-65.8,98.4-97.8
		c6.7-3,13.7-5,21.2-7.3c12.5-4,25.1-7.6,37.9-8.3C913.5,170.6,934.2,225.2,934.2,225.2z"/>
</g>
<g>
	<path class="st1" d="M678.6,184.7l0-1.1c-0.1,0-11.6-0.1-16.4-7.2c-2.5-3.6-2.8-8.5-0.8-14.5c0.9-2.8,1.8-5.4,2.5-7.7
		c5.3-16.2,7.3-22.2,2.5-33.2l-0.9,0.4c4.7,10.6,2.9,16.1-2.5,32.4c-0.8,2.3-1.6,4.9-2.5,7.7c-2,6.4-1.7,11.6,1,15.5
		C666.4,184.6,678.1,184.7,678.6,184.7z"/>
</g>
<g>
	<path class="st1" d="M665.9,121.3c0,0,7.7,17,0.6,38.5c-7.2,21.5,8.2,32.2,22,21.3c13.8-10.9,24.2,8.1,41.3-7.9
		C746.8,156.9,665.9,121.3,665.9,121.3z"/>
</g>
<g>
	<path class="st0" d="M774.2,178.4c-8.7,1.1-17.3-2.7-22.5-10.1l-16.3-23.1l-4.7-6.7l-27.8-39.5l13.2,44.7l7.9,26.8l2.3,7.6
		c1.8,6.2-1.2,12.9-6.9,15.4l-0.1,0c-2,6.2-4,18.4,10.3,19.6c16.7,1.4,39.1-17.5,44.7-34.9C774.2,178.4,774.2,178.4,774.2,178.4z"/>
</g>
<g>
	<path class="st1" d="M735.3,144.5c0,0.3,0.1,0.5,0.1,0.8c2.2,14.9-11.3,25.4-11.3,25.4l-0.1-0.1l-7.9-26.8
		c4.2-2.9,10.3-6.2,14.6-5.2C732.9,139.1,734.6,140.8,735.3,144.5z"/>
</g>
<g>
	<path class="st0" d="M661.7,116.7c-6.4-29.1,6.6-57.1,29.2-62.5c22.5-5.5,46,13.7,52.5,42.8c6.4,29.1-6.6,57.1-29.2,62.5
		C691.7,164.9,668.2,145.8,661.7,116.7z"/>
</g>
<g>
	<path class="st0" d="M739.7,106.2c-3.6,5.7-10,7.8-14.2,4.6c-4.2-3.2-4.8-10.5-1.2-16.2c3.6-5.7,10-7.8,14.2-4.6
		C742.7,93.2,743.3,100.4,739.7,106.2z"/>
</g>
<g>
	<g>
		<path class="st3" d="M698.7,108.3c-0.3,0-0.6-0.2-0.7-0.4c-0.3-0.5-0.2-1.1,0.2-1.4c0.3-0.2,5.8-5.1,12.6-0.1
			c0.4,0.3,0.6,0.9,0.3,1.4c-0.3,0.5-0.8,0.5-1.3,0.3c-4.9-2-10.3-0.1-10.5,0.1C699.1,108.2,698.9,108.3,698.7,108.3z"/>
	</g>
</g>
<g>
	<path class="st3" d="M708.4,117.2c0.6,2.3-0.2,4.5-1.8,5c-1.6,0.4-3.4-1.1-3.9-3.4c-0.6-2.3,0.2-4.5,1.8-5
		C706.1,113.4,707.8,114.9,708.4,117.2z"/>
</g>
<g>
	<g>
		<path class="st3" d="M666.7,121.3c-0.3,0.1-0.6,0.1-0.8-0.1c-0.4-0.3-0.6-0.9-0.3-1.4c0.2-0.3,3.5-7,11.6-5.1
			c0.5,0.1,0.9,0.6,0.8,1.2c-0.1,0.5-0.6,0.8-1.1,0.8c-5.3,0.1-9.5,4-9.7,4.3C667.1,121.1,666.9,121.3,666.7,121.3z"/>
	</g>
</g>
<g>
	<path class="st3" d="M678.9,125.7c1.4,1.9,1.4,4.3,0.1,5.3c-1.3,1-3.5,0.4-4.9-1.5c-1.4-1.9-1.4-4.3-0.1-5.3
		C675.4,123.1,677.5,123.8,678.9,125.7z"/>
</g>
<g>
	<path class="st1" d="M675.7,67.9c0,0,4.9,18.1,27.4,15.9c22.5-2.2,39.7,3.8,40.4,21c0.7,17.1-26.9,59.7,1.9,66.7
		c28.8,6.9,17.8-16.3,47.1-17.4c29.3-1.1,25.7-41.4,1.4-59.4c-24.3-18-29.8-80-101.6-59.8c-71.8,20.2-31.9,74.1-31.9,74.1
		S680.2,88.1,675.7,67.9z"/>
</g>
<g>
	<path class="st4" d="M753.6,173l0.1-0.6c-5.8-1-9.7-3.4-11.8-7.4c-5.8-11.2,3.7-32.9,12.1-52c2.2-5.1,4.3-9.9,6.1-14.4
		c5-12.6,2.8-25.6-5.7-34.1c-9.5-9.3-23.9-10.8-37.7-3.7c-13.3,6.8-23.6,6.1-29.9,4.3c-6.8-2-10.6-5.6-10.6-5.6l-0.4,0.5
		c0.2,0.1,15.4,14.6,41.2,1.4c13.5-6.9,27.7-5.5,37,3.6c8.5,8.3,10.6,20.8,5.6,33.4c-1.8,4.5-3.9,9.3-6.1,14.4
		c-8.4,19.2-18,41-12.1,52.5C743.5,169.4,747.6,172.1,753.6,173z"/>
</g>
<g>
	<path class="st1" d="M699.6,148.4c7.9,0,14.1-7.1,14.4-7.4c0.5-0.6,0.5-1.5-0.1-2c-0.6-0.5-1.4-0.5-1.9,0.1
		c-0.1,0.1-7.4,8.4-15.4,6c-0.7-0.2-1.5,0.2-1.7,1c-0.2,0.8,0.2,1.6,0.9,1.8C697.1,148.2,698.4,148.4,699.6,148.4z"/>
</g>
<g>
	<path class="st1" d="M934.2,225.2c2.3,7.1-15.4,20.5-39.7,29.8c-24.2,9.3-45.8,11.1-48.1,3.9c-2.3-7.1,15.4-20.5,39.7-29.8
		C910.3,219.8,931.8,218.1,934.2,225.2z"/>
</g>
<g>
	<g>
		<path class="st0" d="M667.1,464.1c113.8-4,176.5-30.8,222.2-91.4c50.8-67.4,37.5-138,36.9-141.2c0,0-3-6.7-33,2.5
			c-34.1,10.4-38.3,21.5-38.3,21.5c-2.3,22.6-17.9,60.5-40.5,87.8c-32.8,39.6-112.1,54.5-200.6,73.1L667.1,464.1z"/>
	</g>
</g>
<g class="st5">
	<path class="st6" d="M810.9,406.2c-4.5-4.7-3-13.9,3.3-20.5c6.3-6.6,15.1-8.2,19.6-3.5c2.3,2.4,3.1,5.8,2.4,9.8
		c-0.7,3.8-2.7,7.5-5.7,10.7l0,0l0,0c-3,3.1-6.6,5.2-10.2,5.9c-0.9,0.2-1.8,0.3-2.6,0.3C815,408.9,812.7,408,810.9,406.2z
		 M816.4,388c-5,5.3-6.6,12.6-3.3,16c1.5,1.6,3.9,2.2,6.7,1.6c3-0.6,6.1-2.4,8.6-5.1l0,0c2.6-2.7,4.3-5.9,4.9-9c0.5-2.9,0-5.4-1.5-7
		c-1.2-1.2-2.8-1.8-4.7-1.8C823.7,382.7,819.6,384.6,816.4,388z"/>
</g>
<g>
	<path class="st1" d="M797.4,1212.2c0,0-0.6,25.7-17.2,32.9c-16.6,7.2-64.7,13.8-46.8,30.3c10.3,9.5,58.9,3.3,72.7,3.3
		c13.7,0,26.6,6.3,36.8-3.4c11.2-10.6,0-63.2,0-63.2s-11.8,6.5-22.5,6.2C805.1,1217.9,797.4,1212.2,797.4,1212.2z"/>
</g>
<g>
	<path class="st1" d="M988.2,1212.1c0,0-0.6,25.7-17.2,32.9c-16.6,7.2-64.7,13.8-46.8,30.3c10.3,9.5,58.9,3.3,72.7,3.3
		c13.7,0,26.6,6.3,36.8-3.4c11.2-10.6,0-63.2,0-63.2s-11.8,6.5-22.5,6.2C995.8,1217.9,988.2,1212.1,988.2,1212.1z"/>
</g>
<g>
	<path class="st7" d="M677.9,607.7c0,0-7,8.4,25.8,214.5c23.7,148.7,51.6,298.6,65.3,370.5c4.9,25.7,25.6,44.5,50.1,45.5l13.2,0.6
		c26.5,1.1,48-22.7,46.1-51l-33.3-486.2l-12.2-134.2c0,0-32.3,0.4-85.2,11.7C691.5,591,677.9,607.7,677.9,607.7z"/>
</g>
<g>
	<path class="st7" d="M773.4,585.5l184.8,620.7c7.7,26,30.1,43.8,55.6,44.2l11.1,0.2c26.2,0.5,46.3-24.9,41.5-52.5L965.3,614.9
		c-1.5-6.9-5.2-37.6-11.6-39.5C919,564.9,770,559.8,773.4,585.5z"/>
</g>
<g>
	<path class="st1" d="M856,862.9l3-1l-39.8-126.3C810,706.4,791.1,682,766,667l-1.5,2.8c24.4,14.6,42.8,38.3,51.8,66.8L856,862.9z"
		/>
</g>
<g>
	<path class="st8" d="M249.1,1263.4l420.9,17.2c25.4,1,47.1-22.5,49.9-54.1L744,953.8c5.4-61.2-32.9-114.7-82.2-114.7h-418
		c-27.4,0-49.4,28.3-48.6,62.5l6.8,302.8C202.8,1236.5,223.4,1262.4,249.1,1263.4z"/>
</g>
<g>
	<g>
		<path class="st7" d="M575.5,1165.6c-3.8,0-7.6-0.1-11.5-0.1c-0.6,0-1.1-0.7-1.1-1.5c0-0.8,0.5-1.4,1.2-1.5
			c3.9,0.1,7.7,0.1,11.5,0.1c0.6,0,1.1,0.7,1.1,1.5C576.7,1164.9,576.2,1165.6,575.5,1165.6C575.6,1165.6,575.6,1165.6,575.5,1165.6
			z M585.9,1164.1c0-0.8,0.5-1.5,1.1-1.5c3.9,0,7.7-0.1,11.5-0.2c0,0,0,0,0,0c0.6,0,1.1,0.7,1.1,1.5c0,0.8-0.5,1.5-1.1,1.5
			c-3.8,0.1-7.6,0.1-11.5,0.2c0,0,0,0,0,0C586.4,1165.6,585.9,1164.9,585.9,1164.1z M552.5,1165.2c-3.8-0.1-7.6-0.3-11.5-0.5
			c-0.6,0-1.1-0.7-1.1-1.6c0-0.8,0.6-1.5,1.2-1.5c3.9,0.2,7.7,0.3,11.5,0.5c0.6,0,1.1,0.7,1.1,1.6
			C553.7,1164.5,553.2,1165.2,552.5,1165.2C552.6,1165.2,552.5,1165.2,552.5,1165.2z M608.9,1163.6c0-0.8,0.5-1.5,1.1-1.6
			c3.9-0.1,7.8-0.3,11.5-0.4c0.7-0.1,1.2,0.6,1.2,1.5c0,0.8-0.5,1.5-1.1,1.6c-3.7,0.2-7.6,0.3-11.5,0.4c0,0,0,0,0,0
			C609.4,1165.1,608.9,1164.5,608.9,1163.6z M631.9,1162.6c0-0.8,0.5-1.5,1.1-1.6c4-0.2,7.8-0.5,11.5-0.7c0.6,0,1.2,0.6,1.2,1.4
			c0,0.8-0.5,1.6-1.1,1.6c-3.7,0.3-7.5,0.5-11.5,0.7c0,0,0,0-0.1,0C632.4,1164.1,631.9,1163.5,631.9,1162.6z M529.5,1164.1
			c-3.8-0.2-7.6-0.5-11.5-0.8c-0.6-0.1-1.1-0.8-1.1-1.6c0-0.8,0.6-1.5,1.2-1.4c3.8,0.3,7.7,0.6,11.5,0.8c0.6,0,1.1,0.8,1.1,1.6
			C530.7,1163.4,530.2,1164.1,529.5,1164.1C529.6,1164.1,529.6,1164.1,529.5,1164.1z M654.9,1161.1c0-0.8,0.4-1.6,1.1-1.6
			c4.2-0.3,8-0.7,11.5-1c0.6-0.1,1.2,0.6,1.2,1.4c0,0.8-0.4,1.6-1.1,1.6c-3.5,0.3-7.3,0.7-11.5,1c0,0,0,0-0.1,0
			C655.4,1162.5,654.9,1161.9,654.9,1161.1z M506.6,1162.3c-3.9-0.4-7.8-0.8-11.5-1.2c-0.6-0.1-1.1-0.8-1-1.6
			c0.1-0.8,0.6-1.5,1.2-1.4c3.7,0.4,7.6,0.8,11.4,1.2c0.6,0.1,1.1,0.8,1.1,1.6C507.7,1161.6,507.2,1162.3,506.6,1162.3
			C506.6,1162.3,506.6,1162.3,506.6,1162.3z M677.8,1158.9c-0.1-0.8,0.4-1.6,1-1.6c7.3-0.8,11.4-1.4,11.4-1.4
			c0.6-0.1,1.2,0.5,1.3,1.3c0.1,0.8-0.4,1.6-1,1.7c0,0-4.2,0.6-11.5,1.4c0,0-0.1,0-0.1,0C678.4,1160.3,677.9,1159.7,677.8,1158.9z
			 M483.6,1159.6c-1.9-0.3-3.8-0.5-5.7-0.8c-1.9-0.3-3.8-0.5-5.8-0.8c-0.6-0.1-1.1-0.8-1-1.7c0.1-0.8,0.6-1.4,1.3-1.4
			c1.9,0.3,3.9,0.5,5.8,0.8c1.9,0.3,3.8,0.5,5.6,0.8c0.6,0.1,1.1,0.8,1,1.7c-0.1,0.8-0.6,1.4-1.1,1.4
			C483.7,1159.6,483.7,1159.6,483.6,1159.6z M460.7,1156.6c-3.8-0.5-7.6-0.9-11.4-1.3c-0.6-0.1-1.1-0.8-1.1-1.6
			c0.1-0.8,0.6-1.5,1.2-1.4c3.9,0.4,7.7,0.8,11.5,1.3c0.6,0.1,1.1,0.8,1,1.7c-0.1,0.8-0.6,1.4-1.1,1.4
			C460.8,1156.6,460.8,1156.6,460.7,1156.6z M437.8,1154.2c-3.8-0.4-7.6-0.7-11.5-1c-0.6-0.1-1.1-0.8-1.1-1.6c0-0.8,0.6-1.5,1.2-1.4
			c3.8,0.3,7.7,0.7,11.5,1c0.6,0.1,1.1,0.8,1.1,1.6C439,1153.5,438.5,1154.2,437.8,1154.2C437.9,1154.2,437.9,1154.2,437.8,1154.2z
			 M414.9,1152.2c-3.8-0.3-7.6-0.6-11.5-0.8c-0.6,0-1.1-0.8-1.1-1.6c0-0.8,0.5-1.5,1.2-1.4c3.8,0.3,7.7,0.5,11.5,0.8
			c0.6,0,1.1,0.8,1.1,1.6C416.1,1151.6,415.6,1152.2,414.9,1152.2C414.9,1152.2,414.9,1152.2,414.9,1152.2z M391.9,1150.7
			c-3.8-0.2-7.7-0.4-11.5-0.6c-0.6,0-1.1-0.7-1.1-1.6c0-0.8,0.6-1.5,1.2-1.5c3.8,0.2,7.7,0.4,11.5,0.6c0.6,0,1.1,0.7,1.1,1.6
			C393.1,1150.1,392.6,1150.7,391.9,1150.7C392,1150.7,392,1150.7,391.9,1150.7z M369,1149.5c-3.9-0.2-7.7-0.3-11.5-0.5
			c-0.6,0-1.1-0.7-1.1-1.6c0-0.8,0.6-1.5,1.2-1.5c3.8,0.1,7.6,0.3,11.5,0.5c0.6,0,1.1,0.7,1.1,1.6
			C370.1,1148.9,369.6,1149.5,369,1149.5C369,1149.5,369,1149.5,369,1149.5z M346,1148.6c-3.9-0.1-7.7-0.2-11.5-0.3
			c-0.6,0-1.1-0.7-1.1-1.5c0-0.8,0.5-1.5,1.1-1.5c0,0,0,0,0,0c3.8,0.1,7.6,0.2,11.5,0.3c0.6,0,1.1,0.7,1.1,1.6
			C347.1,1148,346.6,1148.6,346,1148.6C346,1148.6,346,1148.6,346,1148.6z M224,1147.8l0.8-1.1l0-1.5l0.3,0c0.7,0,2.7-0.1,5.9-0.2
			c0.6,0,1.2,0.7,1.2,1.5c0,0.8-0.5,1.5-1.1,1.5c-3.2,0.1-5.2,0.1-5.9,0.2c-0.1,0-0.1,0-0.2,0C224.6,1148.2,224.3,1148.2,224,1147.8
			z M323,1148c-3.9-0.1-7.7-0.1-11.5-0.2c-0.6,0-1.1-0.7-1.1-1.5c0-0.8,0.5-1.5,1.1-1.5c0,0,0,0,0,0c3.8,0.1,7.6,0.1,11.5,0.2
			c0.6,0,1.1,0.7,1.1,1.5C324.1,1147.4,323.6,1148,323,1148C323,1148,323,1148,323,1148z M241.3,1146.3c0-0.8,0.5-1.5,1.1-1.5
			c3.4-0.1,7.3-0.1,11.5-0.1c0,0,0,0,0,0c0.6,0,1.1,0.7,1.1,1.5c0,0.8-0.5,1.5-1.1,1.5c-4.2,0-8.1,0.1-11.5,0.1c0,0,0,0,0,0
			C241.9,1147.8,241.3,1147.2,241.3,1146.3z M300,1147.7c-3.9,0-7.8-0.1-11.5-0.1c-0.6,0-1.1-0.7-1.1-1.5c0-0.8,0.5-1.5,1.2-1.5
			c0,0,0,0,0,0c3.7,0,7.6,0,11.5,0.1c0.6,0,1.1,0.7,1.1,1.5C301.1,1147,300.6,1147.7,300,1147.7C300,1147.7,300,1147.7,300,1147.7z
			 M264.3,1146.1c0-0.8,0.5-1.5,1.1-1.5c3.6,0,7.5,0,11.4,0c0.7-0.1,1.3,0.6,1.3,1.5c0,0.8-0.5,1.5-1.2,1.5c-4,0-7.8,0-11.5,0
			c0,0,0,0,0,0C264.9,1147.6,264.3,1146.9,264.3,1146.1z"/>
	</g>
</g>
<g>
	<path class="st9" d="M680.5,554.3l-78.7-42.6c0,0-152.2,47-194.7,47.4c-42.6,0.4-60.2-32.2-60.2-32.2s34.4-61,106.4-89.7
		c6.8-2.7,13.8-5.1,21.3-7.2c12.5-3.5,25.2-7.1,37.8-6.6C704.1,430.1,680.5,554.3,680.5,554.3z"/>
</g>
<g>
	<path class="st1" d="M256.8,1238.3c0,0,0.7,23.6-14.2,31.1c-14.9,7.5-58.7,16-41.4,30.2c9.9,8.1,54.2,0,66.8-0.7
		c12.6-0.7,24.7,4.3,33.6-5c9.8-10.3-3-57.9-3-57.9s-10.6,6.5-20.3,6.8C264.1,1243.2,256.8,1238.3,256.8,1238.3z"/>
</g>
<g>
	<path class="st1" d="M119.6,1238.2c0,0,0.7,23.6-14.2,31.1c-14.9,7.5-58.7,16-41.4,30.2c9.9,8.1,54.2,0,66.8-0.7
		c12.6-0.7,24.7,4.3,33.6-5c9.8-10.3-3-57.9-3-57.9s-10.6,6.5-20.3,6.8C126.9,1243,119.6,1238.2,119.6,1238.2z"/>
</g>
<g>
	<g>
		<path class="st7" d="M103.3,1199.2c11.2-154.4,13.8-258.6,60.5-325.6c51.2-73.3,188.3-125.1,241.2-128.3
			c86.3-5.3,126.9,8.2,126.9,8.2c64.7,140.7-36.7,159.4-111.7,163.3c-2.5,0.1-5,0.3-7.5,0.4c-45.4,3-126.2,15-156.7,62.2
			c-24.2,37.4-41,89.8-48.1,225.1c-1.4,26-22.2,46.1-47,45.4C160.9,1249.8,99.3,1254.8,103.3,1199.2z"/>
	</g>
</g>
<g>
	<g>
		<path class="st7" d="M225.7,1207.2c-1.5-154.9-6.1-233.9,38.4-302.6c28.6-44.1,71.5-77.4,127.7-98.9c40.1-15.4,87.2-24.8,140.1-28
			c86.3-5.3,125-16.2,125-16.2c69.8,180.2-185.5,141.9-252,218.7c-29,33.4-64.9,97.1-71.9,232.3c-1.4,26-22.2,46.1-47.1,45.4
			C285.9,1257.9,226.3,1263.8,225.7,1207.2z"/>
	</g>
</g>
<g>
	<path class="st1" d="M226.1,1055.1c0-0.9,4.4-92.8,19.2-124.9c18.6-40.6,72.7-83,128.6-100.8l-0.3-1
		c-56.1,17.9-110.5,60.5-129.2,101.4c-14.8,32.3-19.2,124.4-19.2,125.3L226.1,1055.1z"/>
</g>
<g>
	<path class="st9" d="M595.7,475.5c0,0-36.7-65.6-121.3-45.4c-84.6,20.1-119.1,110.4-125.1,327.3c0,0,78.3-3,284.1,68.3
		c24.4,8.4,60.1,1.7,47.6-41.7C657.8,703.3,635.2,542.4,595.7,475.5z"/>
</g>
<g>
	<path class="st1" d="M680.1,556.4c-3.2,6.6-24.4,2.7-47.4-8.7c-23-11.5-39-26.1-35.8-32.8c3.2-6.6,24.4-2.7,47.4,8.7
		C667.3,535.1,683.3,549.8,680.1,556.4z"/>
</g>
<g>
	<path class="st6" d="M507.2,423.4c-7.5-1.2-18.7-0.8-25.6-7.4l-23.1-20.6l-4.6-6.1L417.2,354l22.5,43.9l13.5,26.3l3.8,7.5
		c3.1,6.1,1.3,13.7-4.2,17.6l-0.1,0.1c-0.9,6.9-0.6,20,14.5,18.3C501.9,463.7,507.2,423.4,507.2,423.4z"/>
</g>
<g>
	<path class="st1" d="M463,323.7c0,0,1.5,8.2,12.1,21.6c15.5,19.5-4.9,40.2-13.9,36.7c-1.1-0.4-16.3-38.8-16.3-38.8l5.7-8.5
		L463,323.7z"/>
</g>
<g>
	<path class="st6" d="M377.6,381.1c-12.4-29-4.2-61,18.3-71.5c22.5-10.5,50.8,4.5,63.1,33.5c12.4,29,4.2,61-18.3,71.5
		C418.3,425.1,390,410.1,377.6,381.1z"/>
</g>
<g>
	<path class="st1" d="M381.8,336.4c2.1,0.8,11.8,31.2,62.1,6.6c50.3-24.6-13.5-65-48.6-43.6c-50.7,31-42,92.4-29.6,101.7
		C378,410.5,381.8,336.4,381.8,336.4z"/>
</g>
<g>
	<path class="st1" d="M454.3,266.7c0,0-17,28.2,8.4,35.4c25.4,7.2,79.5-9.7,77,23.7c-2.5,33.4,2.4,78.8,29.7,72
		c27.2-6.7,42.2-16.1,61.3,0c19.1,16.1,59.2-18.1,44.9-41.2c-14.3-23.1,15.4-63.2-11.1-78.3c-26.5-15.1-75.9-15.9-98.9-40.9
		C542.6,212.3,468.3,244.6,454.3,266.7z"/>
</g>
<g>
	<path class="st1" d="M433.6,338.4c0,0,28.8,12.4,31.4,37.6c0,0,5.8-18.3,4-23.2c-1.8-5-12.3-21-12.3-21L433.6,338.4z"/>
</g>
<g>
	<path class="st6" d="M457,353.6c-2.6,6.8-8.9,10.2-14,7.8c-5.1-2.5-7-9.9-4.4-16.7c2.6-6.8,8.9-10.2,14-7.8
		C457.7,339.4,459.6,346.8,457,353.6z"/>
</g>
<g>
	<path class="st4" d="M629.8,398.4l1.8-1c-14.1-27.5-30.8-24.7-48.5-21.8c-6.6,1.1-13.4,2.2-20.2,1.7c-2.8-0.2-4.8-1.2-6.2-3
		c-3.8-4.8-2.7-15.2-1.4-27.1c2-17.7,4.4-39.8-9.5-52.8c-26.1-24.5-56.1-18.5-56.4-18.4c-20.7,6.6-24.6,3.4-25.4,1.7
		c-1.5-3.3,3.7-10,6.2-11.7c20.9-14,46.5-23.8,92-1.6c35.5,17.3,36.6,31.6,37.9,49.7c0.3,4.2,0.6,8.5,1.4,13.2
		c0.7,4.2,2.3,7.2,4.9,9c5.5,3.7,14.3,1.4,22.8-0.8c10.2-2.7,19.9-5.2,24,1.5c3.5,5.6,2.7,14,2,22.1c-0.8,9.2-1.6,17.9,3.3,23.2
		c3.2,3.5,8.4,5,16,4.6l-0.1-2.2c-6.9,0.4-11.6-0.9-14.4-3.9c-4.2-4.6-3.5-12.8-2.7-21.5c0.7-8.5,1.5-17.2-2.3-23.5
		c-4.9-8-15.7-5.2-26.2-2.5c-8.1,2.1-16.5,4.3-21.2,1.1c-2.1-1.4-3.4-3.9-4-7.5c-0.7-4.6-1.1-8.9-1.4-13
		c-1.4-18.8-2.5-33.7-39.1-51.5c-46.4-22.6-72.6-12.5-94,1.8c-2.6,1.8-9.1,9.4-7,14.4c2.2,4.9,11.2,4.7,27.8-0.5
		c0.2,0,29.2-5.8,54.5,17.9c13.1,12.3,10.8,32.8,8.8,51c-1.4,12.4-2.6,23.2,1.8,28.8c1.7,2.2,4.3,3.5,7.7,3.8c7,0.6,14-0.6,20.7-1.7
		C600.4,374.9,616.4,372.2,629.8,398.4z"/>
</g>
<g>
	<path class="st4" d="M422,331.2c4.3,0,9.1-0.8,14-3l-0.6-1.6c-17.6,7.8-32.9-2.9-33.1-3l-0.9,1.4
		C401.5,325.2,410.1,331.2,422,331.2z"/>
</g>
<g>
	<g>
		<path class="st1" d="M408.9,360c-0.3,0.1-0.6,0-0.9-0.2c-0.4-0.4-0.5-1-0.1-1.5c0.2-0.3,4.6-6.9,13-3.8c0.5,0.2,0.8,0.8,0.6,1.3
			c-0.2,0.6-0.7,0.7-1.3,0.7c-5.6-0.6-10.6,2.9-10.8,3.2C409.3,359.8,409.1,359.9,408.9,360z"/>
	</g>
</g>
<g>
	<path class="st0" d="M358.8,624.2c6.3-48.5,15.8-86.5,28.9-115.7c3.8-31.1,14.6-64.3,23.8-80.8l18.8-12.9
		c3.4-21.7-21.9-21.6-29.1-23.8c-7.2-2.2-0.1-25.2-7.2-30.5c-6.7-5-6.9,26-6.9,28.8c-0.1-2.5-1.3-27.9-7.2-32.1
		c-6.2-4.4-4.6,32.4-4.6,32.4s-2.9-26.6-10.1-28.8c-6.9-2.1-3.8,25.9-3.6,28.2c-0.3-1.6-2.6-14.7-6.8-23.9
		c-4.4-9.8-11.7,14.5-7.9,31.2c0.8,3.5,3.2,7.5,6.5,11.7c5.1,6.3,6,15.2,2.6,22.7c-5.6,12.4-12.6,29.7-18,49
		C327.4,517.9,310.5,595.5,358.8,624.2z"/>
</g>
<g>
	<path class="st10" d="M365.7,401.7c0.1,0,0.3-0.1,0.4-0.2c0.2-0.2,0.3-0.6,0-0.9c-4.7-5.3-3.8-11.4-3.8-11.5
		c0.1-0.3-0.2-0.7-0.5-0.7c-0.3-0.1-0.6,0.2-0.7,0.5c0,0.3-1,6.7,4.1,12.5C365.3,401.6,365.5,401.7,365.7,401.7z"/>
</g>
<g>
	<path class="st10" d="M378.3,402c0.1,0,0.3-0.1,0.4-0.2c0.2-0.2,0.3-0.6,0-0.9c-4.8-5.3-2.9-11-2.8-11.2c0.1-0.3,0-0.7-0.4-0.8
		c-0.3-0.1-0.7,0-0.8,0.4c-0.1,0.3-2.2,6.6,3.1,12.5C378,402,378.2,402,378.3,402z"/>
</g>
<g>
	<path class="st10" d="M391.3,403.5l0.6-1.1c-4.4-2.7-4.2-12.8-4.2-12.9l-1.2,0C386.5,389.9,386.3,400.4,391.3,403.5z"/>
</g>
<g>
	<path class="st0" d="M430.8,442c0,0-40.8-29-44.6-45.7c-3.8-16.7,3.5-41,7.9-31.2c4.4,9.8,6.8,24,6.8,24s-3.7-30.6,3.6-28.4
		c7.2,2.2,10.1,28.8,10.1,28.8s-1.6-36.8,4.6-32.4c6.2,4.4,7.2,32.3,7.2,32.3s-0.2-34.3,6.9-29c7,5.3,4.4,25.3,11.7,27.5
		c7.2,2.2,28.4,7.3,25.1,29.5L430.8,442z"/>
</g>
<g>
	<path class="st10" d="M404.9,401.7c0.1,0,0.3,0,0.4-0.1c0.3-0.2,0.3-0.6,0.1-0.9c-4.5-5.7-3.8-11.4-3.8-11.5c0-0.3-0.2-0.7-0.5-0.7
		c-0.3,0-0.6,0.2-0.7,0.5c0,0.3-0.7,6.3,4.1,12.5C404.6,401.6,404.7,401.7,404.9,401.7z"/>
</g>
<g>
	<path class="st10" d="M419.4,404.5c0.1,0,0.3-0.1,0.4-0.2c0.2-0.2,0.3-0.6,0-0.9c-4.9-5.4-4.6-13.8-4.6-13.9c0-0.3-0.2-0.6-0.6-0.7
		c-0.3,0-0.6,0.3-0.6,0.6c0,0.4-0.3,8.9,4.9,14.8C419.1,404.4,419.2,404.5,419.4,404.5z"/>
</g>
<g>
	<path class="st10" d="M430.9,403.6c0.1,0,0.3-0.1,0.4-0.2c0.2-0.2,0.3-0.6,0-0.9c-5.5-6.4-4.3-12.8-4.3-12.9
		c0.1-0.3-0.1-0.7-0.5-0.8c-0.3-0.1-0.6,0.1-0.7,0.5c-0.1,0.3-1.4,7.1,4.6,14C430.5,403.5,430.7,403.6,430.9,403.6z"/>
</g>
<g>
	<g>
		<path class="st0" d="M607.5,631c49.8-26.3,63.9-72.1,64.4-73.4c0,0-4.5-19.6-29-28.1c-35.1-12.2-43.6-6.9-43.6-6.9
			s-30.5,48.7-57.8,46.7c-23.9-1.8-63.4-18.3-71.1-153.4L417,430.1c4.1,72.2,10.5,123.3,29.9,160.2C475,643.8,542.7,665.2,607.5,631
			z"/>
	</g>
</g>
<g>
	<path class="st10" d="M417,430.7c0.2,0,0.5-0.1,0.6-0.4c0.1-0.3,0-0.7-0.3-0.8c-0.4-0.2-36.6-16.7-31.1-50.4
		c0.1-0.3-0.2-0.7-0.5-0.7c-0.3-0.1-0.6,0.2-0.7,0.5c-5.7,34.7,31.4,51.6,31.8,51.8C416.9,430.7,416.9,430.7,417,430.7z"/>
</g>
<g>
	<path class="st0" d="M456.1,372.5l11.7,28.6c0,0-12.5,3.9-16.3-2C447.6,393.3,442.2,361.5,456.1,372.5z"/>
</g>
<g>
	<path class="st10" d="M470.6,430.7c0.3,0,0.6-0.3,0.6-0.6c0-0.8,0.8-20.3-2.8-29.3l-9.1-22.1c-0.2-0.8-2.3-9.1-7.8-9.2c0,0,0,0,0,0
		c-1.3,0-2.4,0.5-3.2,1.4c-2.3,2.7-1.6,8.6-1,13.3c0.7,5.7-1.8,11.6-1.8,11.7c-0.1,0.3,0,0.7,0.3,0.8c0.3,0.1,0.7,0,0.8-0.3
		c0.1-0.3,2.6-6.3,1.9-12.3c-0.5-4.2-1.2-10,0.8-12.3c0.6-0.7,1.3-1,2.3-1c4.7,0,6.6,8.2,6.7,8.2c0,0,0,0.1,0,0.1l9.1,22.1
		c3.6,8.7,2.8,28.5,2.8,28.7C470,430.4,470.2,430.7,470.6,430.7C470.6,430.7,470.6,430.7,470.6,430.7z"/>
</g>
<g>
	<path class="st11" d="M332.1,401.7c0,0-39.6-12.8-55.8,12.5c-16.3,25.3,6.4,46.4,19.9,37.7C309.6,443.1,292.3,418.5,332.1,401.7z"
		/>
</g>
<g>
	<path class="st11" d="M334.5,363.5c0,0-6.7-16.4-18.6-15c-11.9,1.4-12.3,14.4-6.1,16.5C316,367.1,318.8,354.9,334.5,363.5z"/>
</g>
<g>
	<g>
		<g>
			<path class="st0" d="M615.8,416.1c0,0-35,3.7-47.1,21.1c-12.1,17.4-15,49.3-5.3,40.1c9.7-9.1,19-24.4,19-24.4s-18.4,33.6-9,34.7
				c9.4,1.1,25.1-28.3,25.1-28.3s-18.9,41.8-9.7,39.8c9.2-2,23.3-33.8,23.3-33.8s-16.1,39.6-5.5,37.1c10.6-2.5,13.1-32.8,22.4-31.7
				c9.4,1.1,47,2.2,53.1-24.7L615.8,416.1z"/>
		</g>
	</g>
	<g>
		<path class="st10" d="M583.1,453.2c0-0.1,3.8-10,9.6-11.4l-0.3-1.5c-6.6,1.6-10.5,11.9-10.7,12.3L583.1,453.2z"/>
	</g>
	<g>
		<path class="st10" d="M599.2,459.6c0-0.1,3.6-9.9,11.7-13.7l-0.6-1.4c-8.7,4.1-12.4,14.2-12.5,14.6L599.2,459.6z"/>
	</g>
	<g>
		<path class="st10" d="M612.8,465.6c0-0.1,4.5-11.9,10.8-12.8l-0.2-1.6c-7.2,1.1-11.8,13.3-12,13.8L612.8,465.6z"/>
	</g>
</g>
<g class="st5">
	<path class="st12" d="M515.5,632.2L515.5,632.2c-4.1-1.2-7.6-3.5-9.9-6.5c-2.5-3.1-3.3-6.6-2.4-9.8c0.9-3.2,3.4-5.6,7.1-6.9
		c3.5-1.2,7.6-1.1,11.7,0.1c8.6,2.6,14.1,9.9,12.3,16.3c-1.4,4.8-6.5,7.7-12.6,7.7C519.7,633.2,517.6,632.9,515.5,632.2z
		 M511.3,612.1c-2.7,0.9-4.5,2.6-5.1,4.8c-0.6,2.2,0.1,4.6,1.9,6.9c1.9,2.5,4.9,4.4,8.4,5.5c6.8,2.1,13.7,0,15-4.6
		c1.3-4.6-3.4-10.3-10.2-12.4c-1.8-0.6-3.6-0.8-5.4-0.8C514.2,611.4,512.6,611.6,511.3,612.1z"/>
</g>
<rect x="1252.8" y="181" class="st2" width="544.3" height="249.7"/>
<rect x="1252.8" y="428.4" class="st9" width="544.3" height="249.7"/>
<rect x="1252.8" y="675.9" class="st8" width="544.3" height="249.7"/>
<rect x="1252.8" y="925.6" class="st11" width="544.3" height="249.7"/>
</svg>
